<?xml version="1.0" encoding="utf-8"?>
<!-- Generator: Adobe Illustrator 21.0.0, SVG Export Plug-In . SVG Version: 6.00 Build 0)  -->
<svg version="1.1" id="Layer_1" xmlns="http://www.w3.org/2000/svg" xmlns:xlink="http://www.w3.org/1999/xlink" x="0px" y="0px"
	 viewBox="0 0 1008 1152" style="enable-background:new 0 0 1008 1152;" xml:space="preserve">
<style type="text/css">
	.st0{fill-rule:evenodd;clip-rule:evenodd;fill:#1ED761;}
	.st1{fill-rule:evenodd;clip-rule:evenodd;}
</style>
<g>
	<circle class="st0" cx="648" cy="203.7" r="741"/>
</g>
<g>
	<path class="st1" d="M1189.5,58.5c-0.2,53.7-56.5,86.5-103.6,59.8c-32-18.1-64.7-34.5-98.7-48.1c-67.7-27.1-137.8-45.4-209.5-58
		C727.7,3.3,677.5-2.5,626.9-5.5c-52.6-3.2-105.2-3.5-157.8-0.8c-60.3,3.1-120.2,9.7-179.2,22.5C268,20.9,246.5,26.8,225,32.6
		c-13.2,3.5-26.2,4-39.4,0.1c-28.8-8.4-48.7-34.2-49.5-64.5c-0.8-29.4,17.3-56.7,45.8-66c20.8-6.9,42.2-12.3,63.6-17.2
		c53-12.2,106.7-19.8,160.8-24.8c57.5-5.2,115.1-6.9,172.7-5.3c142,4.1,281.2,24.8,416,71.3c54.9,19,107.8,42.5,158.1,71.8
		c17.9,10.5,29.9,25.2,34.5,45.6C1188.6,48.5,1188.9,53.5,1189.5,58.5z"/>
	<path class="st1" d="M518.8,224c-84.6,0.4-171.3,10.8-256,36c-13.8,4.1-27.6,4.4-41.2-1.1c-22-8.9-36.3-31-35.5-54.3
		c0.8-24.3,15.6-45.5,39.1-52.7c23.9-7.3,48.1-13.6,72.5-19c60-13.3,120.8-20.4,182.2-22.7c132.2-5,261.3,12.1,387.3,52.5
		c63.7,20.4,124.6,47.1,182.2,81.4c2.9,1.7,5.7,3.4,8.6,5.2c30,18.3,33.6,55.3,19.3,78.8c-16.4,26.9-50.4,35.3-78.7,19.3
		c-16-9-31.7-18.4-48-26.7c-74.8-38.1-154.1-62.8-236.4-78.4C650.7,230.1,586.7,224.3,518.8,224z"/>
	<path class="st1" d="M532,349.5c97.4,1,192.7,14.2,285.2,45.4c51,17.2,99.7,39.5,146,67c4,2.4,8.1,4.7,11.8,7.5
		c18.7,14.2,23.5,39.8,11.5,60.1c-11.7,19.6-36.4,27.5-57.5,18.2c-4.2-1.9-8.2-4.4-12.2-6.8c-78.4-46.5-163-75.3-253-89.1
		c-55.2-8.5-110.7-11.4-166.4-9.2c-72.1,2.8-143.3,12.8-213.7,28.4c-7.1,1.6-14.4,3-21.7,3.1c-21.8,0.2-40.2-15.2-44-36.2
		c-4.1-22.2,6.9-43,27.3-51.2c4.3-1.7,8.9-2.8,13.4-3.9c57.6-12.9,115.8-22.7,174.6-27.7C466.1,352.4,499.1,351.3,532,349.5z"/>
</g>
</svg>
